<svg width="28" height="28" viewBox="0 0 28 28" fill="none" xmlns="http://www.w3.org/2000/svg">
<path fill-rule="evenodd" clip-rule="evenodd" d="M7 8.75C7 8.26675 7.39175 7.875 7.875 7.875H21.875C22.3582 7.875 22.75 8.26675 22.75 8.75C22.75 9.23325 22.3582 9.625 21.875 9.625H7.875C7.39175 9.625 7 9.23325 7 8.75Z" fill="#BF3325"/>
<path fill-rule="evenodd" clip-rule="evenodd" d="M7 4.375C7 3.89175 7.39175 3.5 7.875 3.5H21.875C22.3582 3.5 22.75 3.89175 22.75 4.375C22.75 4.85825 22.3582 5.25 21.875 5.25H7.875C7.39175 5.25 7 4.85825 7 4.375Z" fill="#BF3325"/>
<path fill-rule="evenodd" clip-rule="evenodd" d="M10.9375 4.375C10.9375 3.89175 11.3293 3.5 11.8125 3.5C13.553 3.5 15.2222 4.1914 16.4529 5.42211C17.6836 6.65282 18.375 8.32202 18.375 10.0625C18.375 11.803 17.6836 13.4722 16.4529 14.7029C15.2222 15.9336 13.553 16.625 11.8125 16.625H10.1383L18.0886 23.8526C18.4462 24.1776 18.4726 24.731 18.1475 25.0886C17.8224 25.4462 17.269 25.4725 16.9114 25.1474L7.28645 16.3974C7.01896 16.1543 6.92855 15.7717 7.0589 15.4345C7.18926 15.0973 7.51354 14.875 7.87504 14.875H11.8125C13.0889 14.875 14.313 14.368 15.2155 13.4655C16.118 12.5629 16.625 11.3389 16.625 10.0625C16.625 8.78615 16.118 7.56207 15.2155 6.65955C14.313 5.75703 13.0889 5.25 11.8125 5.25C11.3293 5.25 10.9375 4.85825 10.9375 4.375Z" fill="#BF3325"/>
</svg>
