<svg width="32" height="32" viewBox="0 0 32 32" fill="none" xmlns="http://www.w3.org/2000/svg">
<path fill-rule="evenodd" clip-rule="evenodd" d="M18 14C18 13.4477 18.4477 13 19 13H24C24.5523 13 25 13.4477 25 14C25 14.5523 24.5523 15 24 15H19C18.4477 15 18 14.5523 18 14Z" fill="black"/>
<path fill-rule="evenodd" clip-rule="evenodd" d="M18 18C18 17.4477 18.4477 17 19 17H24C24.5523 17 25 17.4477 25 18C25 18.5523 24.5523 19 24 19H19C18.4477 19 18 18.5523 18 18Z" fill="black"/>
<path fill-rule="evenodd" clip-rule="evenodd" d="M11.5127 13C10.4081 13 9.5127 13.8954 9.5127 15C9.5127 16.1046 10.4081 17 11.5127 17C12.6173 17 13.5127 16.1046 13.5127 15C13.5127 13.8954 12.6173 13 11.5127 13ZM7.5127 15C7.5127 12.7909 9.30356 11 11.5127 11C13.7218 11 15.5127 12.7909 15.5127 15C15.5127 17.2091 13.7218 19 11.5127 19C9.30356 19 7.5127 17.2091 7.5127 15Z" fill="black"/>
<path fill-rule="evenodd" clip-rule="evenodd" d="M11.5124 18.9922C10.8463 18.9922 10.1991 19.2139 9.67293 19.6223C9.14672 20.0308 8.77142 20.6028 8.6062 21.2481C8.46921 21.7831 7.92443 22.1058 7.38941 21.9688C6.85438 21.8318 6.53171 21.287 6.6687 20.752C6.94407 19.6765 7.56957 18.7232 8.44659 18.0424C9.3236 17.3617 10.4022 16.9922 11.5124 16.9922C12.6227 16.9922 13.7013 17.3617 14.5783 18.0424C15.4553 18.7232 16.0808 19.6765 16.3562 20.752C16.4932 21.287 16.1705 21.8318 15.6355 21.9688C15.1005 22.1058 14.5557 21.7831 14.4187 21.2481C14.2535 20.6028 13.8782 20.0308 13.352 19.6223C12.8258 19.2139 12.1786 18.9922 11.5124 18.9922Z" fill="black"/>
<path fill-rule="evenodd" clip-rule="evenodd" d="M3 7C3 5.89543 3.89543 5 5 5H27C28.1046 5 29 5.89543 29 7V25C29 26.1046 28.1046 27 27 27H5C3.89543 27 3 26.1046 3 25V7ZM27 7H5V25H27V7Z" fill="black"/>
</svg>
