<svg width="32" height="32" viewBox="0 0 32 32" fill="none" xmlns="http://www.w3.org/2000/svg">
<path fill-rule="evenodd" clip-rule="evenodd" d="M16 5C9.92487 5 5 9.92487 5 16C5 22.0751 9.92487 27 16 27C22.0751 27 27 22.0751 27 16C27 9.92487 22.0751 5 16 5ZM3 16C3 8.8203 8.8203 3 16 3C23.1797 3 29 8.8203 29 16C29 23.1797 23.1797 29 16 29C8.8203 29 3 23.1797 3 16Z" fill="black"/>
<path fill-rule="evenodd" clip-rule="evenodd" d="M13.2387 9.94864C14.0284 9.33497 14.9999 9.00183 16 9.00183C17.0001 9.00183 17.9717 9.33497 18.7613 9.94864C19.551 10.5623 20.1137 11.4215 20.3606 12.3906C20.6076 13.3597 20.5247 14.3835 20.125 15.3002C19.8495 15.9322 19.4342 16.4886 18.9151 16.93L20.3181 20.2036C20.4495 20.5063 20.504 20.8369 20.4766 21.1659C20.4491 21.4962 20.34 21.8144 20.159 22.0921C19.978 22.3697 19.7309 22.598 19.4399 22.7565C19.1488 22.915 18.8229 22.9987 18.4915 23L18.4875 23H13.5085C13.1771 22.9987 12.8512 22.915 12.5601 22.7565C12.2691 22.598 12.022 22.3697 11.841 22.0921C11.66 21.8144 11.5509 21.4962 11.5234 21.1659C11.496 20.8369 11.5505 20.5063 11.682 20.2035L13.0849 16.93C12.5658 16.4886 12.1505 15.9322 11.875 15.3002C11.4753 14.3835 11.3924 13.3597 11.6394 12.3906C11.8863 11.4215 12.449 10.5623 13.2387 9.94864ZM16 11.0018C15.4444 11.0018 14.9046 11.1869 14.4659 11.5278C14.0272 11.8688 13.7146 12.3461 13.5774 12.8845C13.4402 13.4229 13.4863 13.9916 13.7083 14.5009C13.9304 15.0102 14.3157 15.4311 14.8036 15.697C15.2565 15.9438 15.4474 16.4948 15.2441 16.9689L13.5165 21H18.4835L18.4808 20.9939L16.7559 16.9689C16.5526 16.4948 16.7435 15.9438 17.1964 15.697C17.6843 15.4311 18.0696 15.0102 18.2917 14.5009C18.5137 13.9916 18.5598 13.4229 18.4226 12.8845C18.2854 12.3461 17.9728 11.8688 17.5341 11.5278C17.0954 11.1869 16.5556 11.0018 16 11.0018Z" fill="black"/>
</svg>
