<svg width="32" height="32" viewBox="0 0 32 32" fill="none" xmlns="http://www.w3.org/2000/svg">
<path fill-rule="evenodd" clip-rule="evenodd" d="M16 11C13.7909 11 12 12.7909 12 15C12 17.2091 13.7909 19 16 19C18.2091 19 20 17.2091 20 15C20 12.7909 18.2091 11 16 11ZM10 15C10 11.6863 12.6863 9 16 9C19.3137 9 22 11.6863 22 15C22 18.3137 19.3137 21 16 21C12.6863 21 10 18.3137 10 15Z" fill="black"/>
<path fill-rule="evenodd" clip-rule="evenodd" d="M16 21C14.5226 21 13.074 21.4084 11.8149 22.1812C10.5558 22.954 9.53528 24.0604 8.86649 25.3777C8.61648 25.8702 8.01458 26.0667 7.52213 25.8167C7.02968 25.5667 6.83314 24.9648 7.08316 24.4723C7.91914 22.8257 9.19477 21.4427 10.7686 20.4767C12.3425 19.5106 14.1533 19 16 19C17.8467 19 19.6572 19.5106 21.231 20.4767C22.8049 21.4427 24.0805 22.8257 24.9165 24.4723C25.1665 24.9648 24.97 25.5667 24.4775 25.8167C23.9851 26.0667 23.3832 25.8702 23.1332 25.3777C22.4644 24.0604 21.4439 22.954 20.1848 22.1812C18.9257 21.4084 17.4774 21 16 21Z" fill="black"/>
<path fill-rule="evenodd" clip-rule="evenodd" d="M24.2929 15.2929C24.6834 14.9024 25.3166 14.9024 25.7071 15.2929L28 17.5858L30.2929 15.2929C30.6834 14.9024 31.3166 14.9024 31.7071 15.2929C32.0976 15.6834 32.0976 16.3166 31.7071 16.7071L28.7071 19.7071C28.3166 20.0976 27.6834 20.0976 27.2929 19.7071L24.2929 16.7071C23.9024 16.3166 23.9024 15.6834 24.2929 15.2929Z" fill="black"/>
<path fill-rule="evenodd" clip-rule="evenodd" d="M3.29289 12.2929C3.68342 11.9024 4.31658 11.9024 4.70711 12.2929L7.70711 15.2929C8.09763 15.6834 8.09763 16.3166 7.70711 16.7071C7.31658 17.0976 6.68342 17.0976 6.29289 16.7071L4 14.4142L1.70711 16.7071C1.31658 17.0976 0.683417 17.0976 0.292893 16.7071C-0.0976311 16.3166 -0.0976311 15.6834 0.292893 15.2929L3.29289 12.2929Z" fill="black"/>
<path fill-rule="evenodd" clip-rule="evenodd" d="M11.4711 3.80129C14.1039 2.82275 16.9827 2.7232 19.6768 3.51754C22.3708 4.31188 24.7352 5.95739 26.4159 8.20775C28.0966 10.4581 29.0033 13.1923 29.0002 16.001L28.0002 15.9999H29.0002V16.001V18.9999C29.0002 19.5522 28.5525 19.9999 28.0002 19.9999C27.4479 19.9999 27.0002 19.5522 27.0002 18.9999V15.9988C27.0028 13.6222 26.2356 11.3087 24.8135 9.40453C23.3913 7.50038 21.3908 6.10803 19.1112 5.43589C16.8316 4.76376 14.3956 4.84799 12.1679 5.67598C9.94019 6.50398 8.04056 8.03119 6.75334 10.029C6.45422 10.4933 5.83537 10.6272 5.3711 10.328C4.90684 10.0289 4.77297 9.41007 5.07209 8.9458C6.59334 6.58472 8.83837 4.77982 11.4711 3.80129Z" fill="black"/>
<path fill-rule="evenodd" clip-rule="evenodd" d="M4.00001 12C4.55229 12 5.00001 12.4477 5.00001 13L5.00001 16.0011C4.99741 18.3777 5.7646 20.6912 7.18674 22.5954C8.60888 24.4995 10.6095 25.8919 12.8891 26.564C15.1686 27.2362 17.6046 27.1519 19.8323 26.3239C22.06 25.4959 23.9597 23.9687 25.2469 21.9709C25.546 21.5066 26.1649 21.3727 26.6291 21.6719C27.0934 21.971 27.2273 22.5899 26.9281 23.0541C25.4069 25.4152 23.1619 27.2201 20.5291 28.1986C17.8964 29.1772 15.0175 29.2767 12.3234 28.4824C9.62938 27.688 7.26504 26.0425 5.58433 23.7922C3.90373 21.542 2.99706 18.808 3.00001 15.9995C3.00001 15.9997 3.00001 15.9993 3.00001 15.9995V13C3.00001 12.4477 3.44772 12 4.00001 12Z" fill="black"/>
</svg>
