<svg width="32" height="32" viewBox="0 0 32 32" fill="none" xmlns="http://www.w3.org/2000/svg">
<path fill-rule="evenodd" clip-rule="evenodd" d="M24 17C24 16.4477 24.4477 16 25 16H31C31.5523 16 32 16.4477 32 17C32 17.5523 31.5523 18 31 18H25C24.4477 18 24 17.5523 24 17Z" fill="black"/>
<path fill-rule="evenodd" clip-rule="evenodd" d="M28 13C28.5523 13 29 13.4477 29 14V20C29 20.5523 28.5523 21 28 21C27.4477 21 27 20.5523 27 20V14C27 13.4477 27.4477 13 28 13Z" fill="black"/>
<path fill-rule="evenodd" clip-rule="evenodd" d="M13.5 6C9.91015 6 7 8.91015 7 12.5C7 16.0899 9.91015 19 13.5 19C17.0899 19 20 16.0899 20 12.5C20 8.91015 17.0899 6 13.5 6ZM5 12.5C5 7.80558 8.80558 4 13.5 4C18.1944 4 22 7.80558 22 12.5C22 17.1944 18.1944 21 13.5 21C8.80558 21 5 17.1944 5 12.5Z" fill="black"/>
<path fill-rule="evenodd" clip-rule="evenodd" d="M13.4999 20.9985C11.6015 20.9985 9.72616 21.4143 8.00564 22.2167C6.28512 23.019 4.7612 24.1884 3.541 25.6427C3.18601 26.0658 2.55526 26.121 2.13217 25.766C1.70908 25.411 1.65387 24.7803 2.00885 24.3572C3.41679 22.6792 5.17515 21.3298 7.16037 20.4041C9.14558 19.4783 11.3095 18.9985 13.4999 18.9985C15.6904 18.9985 17.8543 19.4783 19.8395 20.4041C21.8247 21.3298 23.5831 22.6792 24.991 24.3572C25.346 24.7803 25.2908 25.411 24.8677 25.766C24.4446 26.121 23.8138 26.0658 23.4589 25.6427C22.2386 24.1884 20.7147 23.019 18.9942 22.2167C17.2737 21.4143 15.3983 20.9985 13.4999 20.9985Z" fill="black"/>
</svg>
