<svg width="32" height="32" viewBox="0 0 32 32" fill="none" xmlns="http://www.w3.org/2000/svg">
<path fill-rule="evenodd" clip-rule="evenodd" d="M16 5C9.92487 5 5 9.92487 5 16C5 22.0751 9.92487 27 16 27C22.0751 27 27 22.0751 27 16C27 9.92487 22.0751 5 16 5ZM3 16C3 8.8203 8.8203 3 16 3C23.1797 3 29 8.8203 29 16C29 23.1797 23.1797 29 16 29C8.8203 29 3 23.1797 3 16Z" fill="#3F3D56"/>
<path d="M11.5 15C12.3284 15 13 14.3284 13 13.5C13 12.6716 12.3284 12 11.5 12C10.6716 12 10 12.6716 10 13.5C10 14.3284 10.6716 15 11.5 15Z" fill="#3F3D56"/>
<path d="M20.5 15C21.3284 15 22 14.3284 22 13.5C22 12.6716 21.3284 12 20.5 12C19.6716 12 19 12.6716 19 13.5C19 14.3284 19.6716 15 20.5 15Z" fill="#3F3D56"/>
<path d="M11.5 15C12.3284 15 13 14.3284 13 13.5C13 12.6716 12.3284 12 11.5 12C10.6716 12 10 12.6716 10 13.5C10 14.3284 10.6716 15 11.5 15Z" fill="#3F3D56"/>
<path d="M20.5 15C21.3284 15 22 14.3284 22 13.5C22 12.6716 21.3284 12 20.5 12C19.6716 12 19 12.6716 19 13.5C19 14.3284 19.6716 15 20.5 15Z" fill="#3F3D56"/>
<path fill-rule="evenodd" clip-rule="evenodd" d="M12.5008 18.9413C13.5651 18.3284 14.7718 18.0059 16 18.0059C17.2282 18.0059 18.4348 18.3284 19.4992 18.9413C20.5635 19.5542 21.4483 20.4358 22.0648 21.4981C22.3421 21.9757 22.1796 22.5877 21.702 22.8649C21.2243 23.1422 20.6124 22.9797 20.3351 22.5021C19.8944 21.7428 19.262 21.1126 18.5012 20.6745C17.7404 20.2364 16.8779 20.0059 16 20.0059C15.1221 20.0059 14.2595 20.2364 13.4987 20.6745C12.7379 21.1126 12.1055 21.7428 11.6648 22.5021C11.3876 22.9797 10.7756 23.1422 10.298 22.8649C9.82031 22.5877 9.65786 21.9757 9.9351 21.4981C10.5517 20.4358 11.4364 19.5542 12.5008 18.9413Z" fill="#3F3D56"/>
</svg>
